STARTFONT 2.1
FONT -URW-ITC Avant Garde-Demi-R-Normal-Sans-12-120-72-72-P-68-ISO8859-1
SIZE 12 72 72
FONTBOUNDINGBOX 16 16 -2 -3

STARTPROPERTIES 22
FONTNAME_REGISTRY "-"
FOUNDRY "URW"
FAMILY_NAME "ITC Avant Garde"
WEIGHT_NAME "Demi"
SLANT "R"
SETWIDTH_NAME "Normal"
ADD_STYLE_NAME "Sans"
PIXEL_SIZE 12
POINT_SIZE 120
RESOLUTION_X 72
RESOLUTION_Y 72
SPACING "P"
CHARSET_REGISTRY "ISO8859"
CHARSET_ENCODING "1"
FULL_NAME "AvantGarde-Demi"
AVERAGE_WIDTH 68
WEIGHT 10
X_HEIGHT 6
QUAD_WIDTH 8
DEFAULT_CHAR 32
FONT_DESCENT 3
FONT_ASCENT 13
ENDPROPERTIES

CHARS 190

STARTCHAR space
ENCODING 32
SWIDTH 280 0
DWIDTH 3 0
BBX 1 1 0 0
BITMAP
00
ENDCHAR

STARTCHAR exclam
ENCODING 33
SWIDTH 280 0
DWIDTH 3 0
BBX 2 9 1 0
BITMAP
C0
C0
C0
C0
C0
C0
C0
00
C0
ENDCHAR

STARTCHAR quotedbl
ENCODING 34
SWIDTH 360 0
DWIDTH 4 0
BBX 3 2 1 7
BITMAP
A0
A0
ENDCHAR

STARTCHAR numbersign
ENCODING 35
SWIDTH 560 0
DWIDTH 7 0
BBX 6 9 1 0
BITMAP
28
28
28
FC
28
FC
50
50
50
ENDCHAR

STARTCHAR dollar
ENCODING 36
SWIDTH 560 0
DWIDTH 7 0
BBX 6 12 0 -1
BITMAP
30
30
78
CC
E0
78
3C
0C
CC
F8
30
30
ENDCHAR

STARTCHAR percent
ENCODING 37
SWIDTH 860 0
DWIDTH 10 0
BBX 8 9 1 0
BITMAP
66
F6
6C
0C
08
18
16
3F
36
ENDCHAR

STARTCHAR ampersand
ENCODING 38
SWIDTH 680 0
DWIDTH 8 0
BBX 9 9 0 0
BITMAP
3800
6C00
6C00
6C00
3980
FB00
CE00
CF00
7980
ENDCHAR

STARTCHAR quoteright
ENCODING 39
SWIDTH 280 0
DWIDTH 3 0
BBX 2 4 1 5
BITMAP
C0
C0
40
80
ENDCHAR

STARTCHAR parenleft
ENCODING 40
SWIDTH 380 0
DWIDTH 5 0
BBX 4 11 1 -2
BITMAP
10
30
60
C0
C0
C0
C0
C0
60
30
10
ENDCHAR

STARTCHAR parenright
ENCODING 41
SWIDTH 380 0
DWIDTH 5 0
BBX 4 11 0 -2
BITMAP
80
C0
60
30
30
30
30
30
60
C0
80
ENDCHAR

STARTCHAR asterisk
ENCODING 42
SWIDTH 440 0
DWIDTH 5 0
BBX 4 4 1 5
BITMAP
60
F0
60
F0
ENDCHAR

STARTCHAR plus
ENCODING 43
SWIDTH 600 0
DWIDTH 7 0
BBX 5 5 1 1
BITMAP
20
20
F8
20
20
ENDCHAR

STARTCHAR comma
ENCODING 44
SWIDTH 280 0
DWIDTH 3 0
BBX 2 3 1 -2
BITMAP
C0
40
C0
ENDCHAR

STARTCHAR minus
ENCODING 45
SWIDTH 600 0
DWIDTH 7 0
BBX 6 1 1 4
BITMAP
FC
ENDCHAR

STARTCHAR period
ENCODING 46
SWIDTH 280 0
DWIDTH 3 0
BBX 1 1 1 0
BITMAP
80
ENDCHAR

STARTCHAR slash
ENCODING 47
SWIDTH 460 0
DWIDTH 6 0
BBX 5 11 0 -2
BITMAP
18
18
10
30
30
20
60
60
40
C0
C0
ENDCHAR

STARTCHAR zero
ENCODING 48
SWIDTH 560 0
DWIDTH 7 0
BBX 6 9 0 0
BITMAP
78
CC
CC
CC
CC
CC
CC
CC
78
ENDCHAR

STARTCHAR one
ENCODING 49
SWIDTH 560 0
DWIDTH 7 0
BBX 3 9 2 0
BITMAP
E0
60
60
60
60
60
60
60
60
ENDCHAR

STARTCHAR two
ENCODING 50
SWIDTH 560 0
DWIDTH 7 0
BBX 6 9 0 0
BITMAP
78
FC
CC
0C
18
30
60
FC
FC
ENDCHAR

STARTCHAR three
ENCODING 51
SWIDTH 560 0
DWIDTH 7 0
BBX 6 9 0 0
BITMAP
78
58
18
30
38
0C
CC
CC
78
ENDCHAR

STARTCHAR four
ENCODING 52
SWIDTH 560 0
DWIDTH 7 0
BBX 7 9 0 0
BITMAP
0C
1C
3C
3C
6C
FE
FE
0C
0C
ENDCHAR

STARTCHAR five
ENCODING 53
SWIDTH 560 0
DWIDTH 7 0
BBX 6 9 0 0
BITMAP
78
78
60
F8
FC
0C
0C
DC
78
ENDCHAR

STARTCHAR six
ENCODING 54
SWIDTH 560 0
DWIDTH 7 0
BBX 7 9 0 0
BITMAP
1C
38
30
60
7C
C6
C6
C6
7C
ENDCHAR

STARTCHAR seven
ENCODING 55
SWIDTH 560 0
DWIDTH 7 0
BBX 6 9 0 0
BITMAP
FC
0C
1C
18
30
30
60
60
C0
ENDCHAR

STARTCHAR eight
ENCODING 56
SWIDTH 560 0
DWIDTH 7 0
BBX 6 9 0 0
BITMAP
78
CC
CC
CC
FC
CC
CC
CC
78
ENDCHAR

STARTCHAR nine
ENCODING 57
SWIDTH 560 0
DWIDTH 7 0
BBX 7 9 0 0
BITMAP
38
C6
C6
C6
C6
7E
1C
38
70
ENDCHAR

STARTCHAR colon
ENCODING 58
SWIDTH 280 0
DWIDTH 3 0
BBX 1 6 1 0
BITMAP
80
00
00
00
00
80
ENDCHAR

STARTCHAR semicolon
ENCODING 59
SWIDTH 280 0
DWIDTH 3 0
BBX 1 8 1 -2
BITMAP
80
00
00
00
00
80
80
80
ENDCHAR

STARTCHAR less
ENCODING 60
SWIDTH 600 0
DWIDTH 7 0
BBX 6 6 1 0
BITMAP
0C
3C
F0
F0
3C
0C
ENDCHAR

STARTCHAR equal
ENCODING 61
SWIDTH 600 0
DWIDTH 7 0
BBX 6 3 1 2
BITMAP
FC
00
FC
ENDCHAR

STARTCHAR greater
ENCODING 62
SWIDTH 600 0
DWIDTH 7 0
BBX 6 6 1 0
BITMAP
C0
F0
3C
3C
F0
C0
ENDCHAR

STARTCHAR question
ENCODING 63
SWIDTH 560 0
DWIDTH 7 0
BBX 6 9 0 0
BITMAP
78
CC
0C
1C
18
30
30
00
30
ENDCHAR

STARTCHAR at
ENCODING 64
SWIDTH 740 0
DWIDTH 9 0
BBX 9 9 0 0
BITMAP
3E00
6100
CC80
9E80
B680
B680
9B00
4000
3E00
ENDCHAR

STARTCHAR A
ENCODING 65
SWIDTH 740 0
DWIDTH 9 0
BBX 9 9 0 0
BITMAP
1800
1C00
1C00
3600
3600
7600
7F00
E300
C180
ENDCHAR

STARTCHAR B
ENCODING 66
SWIDTH 580 0
DWIDTH 7 0
BBX 6 9 1 0
BITMAP
F0
D8
D8
D8
F8
CC
CC
CC
F8
ENDCHAR

STARTCHAR C
ENCODING 67
SWIDTH 780 0
DWIDTH 9 0
BBX 9 9 0 0
BITMAP
1E00
7F80
E180
C000
C000
C000
6180
7F80
1E00
ENDCHAR

STARTCHAR D
ENCODING 68
SWIDTH 700 0
DWIDTH 8 0
BBX 7 9 1 0
BITMAP
F8
CC
C6
C6
C6
C6
C6
CC
F8
ENDCHAR

STARTCHAR E
ENCODING 69
SWIDTH 520 0
DWIDTH 6 0
BBX 5 9 1 0
BITMAP
F8
C0
C0
C0
F8
C0
C0
C0
F8
ENDCHAR

STARTCHAR F
ENCODING 70
SWIDTH 480 0
DWIDTH 6 0
BBX 5 9 1 0
BITMAP
F8
C0
C0
C0
F8
C0
C0
C0
C0
ENDCHAR

STARTCHAR G
ENCODING 71
SWIDTH 840 0
DWIDTH 10 0
BBX 10 9 0 0
BITMAP
1F80
7FC0
6000
C000
CFC0
CFC0
E0C0
7F80
1F00
ENDCHAR

STARTCHAR H
ENCODING 72
SWIDTH 680 0
DWIDTH 8 0
BBX 7 9 1 0
BITMAP
C6
C6
C6
C6
FE
C6
C6
C6
C6
ENDCHAR

STARTCHAR I
ENCODING 73
SWIDTH 280 0
DWIDTH 3 0
BBX 2 9 1 0
BITMAP
C0
C0
C0
C0
C0
C0
C0
C0
C0
ENDCHAR

STARTCHAR J
ENCODING 74
SWIDTH 480 0
DWIDTH 6 0
BBX 5 9 0 0
BITMAP
18
18
18
18
18
18
18
18
F0
ENDCHAR

STARTCHAR K
ENCODING 75
SWIDTH 620 0
DWIDTH 7 0
BBX 6 9 1 0
BITMAP
C4
CC
D8
F0
E0
F0
D8
CC
C4
ENDCHAR

STARTCHAR L
ENCODING 76
SWIDTH 440 0
DWIDTH 5 0
BBX 5 9 1 0
BITMAP
C0
C0
C0
C0
C0
C0
C0
C0
F8
ENDCHAR

STARTCHAR M
ENCODING 77
SWIDTH 900 0
DWIDTH 11 0
BBX 10 9 0 0
BITMAP
E1C0
E1C0
F3C0
F3C0
F3C0
DEC0
DEC0
CCC0
CCC0
ENDCHAR

STARTCHAR N
ENCODING 78
SWIDTH 740 0
DWIDTH 9 0
BBX 8 9 0 0
BITMAP
E3
E3
F3
FB
DB
DF
CF
C7
C7
ENDCHAR

STARTCHAR O
ENCODING 79
SWIDTH 840 0
DWIDTH 10 0
BBX 8 9 0 0
BITMAP
3C
7E
E7
C3
C3
C3
E7
7E
3C
ENDCHAR

STARTCHAR P
ENCODING 80
SWIDTH 560 0
DWIDTH 7 0
BBX 6 9 1 0
BITMAP
F8
CC
CC
CC
CC
F8
C0
C0
C0
ENDCHAR

STARTCHAR Q
ENCODING 81
SWIDTH 840 0
DWIDTH 10 0
BBX 10 9 0 0
BITMAP
1E00
6180
6180
C0C0
C0C0
FCC0
66C0
7780
1EC0
ENDCHAR

STARTCHAR R
ENCODING 82
SWIDTH 580 0
DWIDTH 7 0
BBX 6 9 1 0
BITMAP
F8
CC
CC
CC
F8
F0
D8
D8
CC
ENDCHAR

STARTCHAR S
ENCODING 83
SWIDTH 520 0
DWIDTH 6 0
BBX 6 9 0 0
BITMAP
78
CC
C0
F0
78
1C
0C
CC
78
ENDCHAR

STARTCHAR T
ENCODING 84
SWIDTH 420 0
DWIDTH 5 0
BBX 6 9 0 0
BITMAP
FC
30
30
30
30
30
30
30
30
ENDCHAR

STARTCHAR U
ENCODING 85
SWIDTH 640 0
DWIDTH 8 0
BBX 6 9 1 0
BITMAP
CC
CC
CC
CC
CC
CC
CC
CC
78
ENDCHAR

STARTCHAR V
ENCODING 86
SWIDTH 700 0
DWIDTH 8 0
BBX 9 9 0 0
BITMAP
C380
E300
6700
6600
7600
3C00
3C00
1C00
1800
ENDCHAR

STARTCHAR W
ENCODING 87
SWIDTH 900 0
DWIDTH 11 0
BBX 11 9 0 0
BITMAP
CC60
CEE0
EEC0
6EC0
7EC0
7B80
3B80
3B80
3300
ENDCHAR

STARTCHAR X
ENCODING 88
SWIDTH 680 0
DWIDTH 8 0
BBX 8 9 0 0
BITMAP
E3
66
7E
3C
18
3C
7E
66
E3
ENDCHAR

STARTCHAR Y
ENCODING 89
SWIDTH 620 0
DWIDTH 7 0
BBX 8 9 0 0
BITMAP
C3
66
66
3C
3C
18
18
18
18
ENDCHAR

STARTCHAR Z
ENCODING 90
SWIDTH 500 0
DWIDTH 6 0
BBX 6 9 0 0
BITMAP
F8
18
18
30
30
60
60
C0
FC
ENDCHAR

STARTCHAR bracketleft
ENCODING 91
SWIDTH 320 0
DWIDTH 4 0
BBX 3 11 1 -2
BITMAP
20
60
C0
C0
C0
C0
C0
C0
C0
60
20
ENDCHAR

STARTCHAR backslash
ENCODING 92
SWIDTH 640 0
DWIDTH 8 0
BBX 5 9 1 0
BITMAP
80
C0
40
60
20
30
10
18
08
ENDCHAR

STARTCHAR bracketright
ENCODING 93
SWIDTH 320 0
DWIDTH 4 0
BBX 3 11 0 -2
BITMAP
80
C0
60
60
60
60
60
60
60
C0
80
ENDCHAR

STARTCHAR asciicircum
ENCODING 94
SWIDTH 600 0
DWIDTH 7 0
BBX 6 5 1 4
BITMAP
30
78
78
CC
CC
ENDCHAR

STARTCHAR underscore
ENCODING 95
SWIDTH 500 0
DWIDTH 6 0
BBX 6 1 0 -2
BITMAP
FC
ENDCHAR

STARTCHAR quoteleft
ENCODING 96
SWIDTH 280 0
DWIDTH 3 0
BBX 2 3 1 6
BITMAP
C0
80
C0
ENDCHAR

STARTCHAR a
ENCODING 97
SWIDTH 660 0
DWIDTH 8 0
BBX 7 6 0 0
BITMAP
7A
C6
C6
C6
C6
7A
ENDCHAR

STARTCHAR b
ENCODING 98
SWIDTH 660 0
DWIDTH 8 0
BBX 7 9 1 0
BITMAP
C0
C0
C0
FC
C6
C6
C6
C6
FC
ENDCHAR

STARTCHAR c
ENCODING 99
SWIDTH 640 0
DWIDTH 8 0
BBX 7 6 0 0
BITMAP
3C
E6
C0
C0
E6
3C
ENDCHAR

STARTCHAR d
ENCODING 100
SWIDTH 660 0
DWIDTH 8 0
BBX 7 9 0 0
BITMAP
06
06
06
7E
C6
C6
C6
E6
7E
ENDCHAR

STARTCHAR e
ENCODING 101
SWIDTH 640 0
DWIDTH 8 0
BBX 8 6 0 0
BITMAP
3C
43
FF
C0
63
3C
ENDCHAR

STARTCHAR f
ENCODING 102
SWIDTH 280 0
DWIDTH 3 0
BBX 4 9 0 0
BITMAP
30
70
60
F0
60
60
60
60
60
ENDCHAR

STARTCHAR g
ENCODING 103
SWIDTH 660 0
DWIDTH 8 0
BBX 7 8 0 -2
BITMAP
7E
C6
C6
C6
C6
7E
86
7C
ENDCHAR

STARTCHAR h
ENCODING 104
SWIDTH 600 0
DWIDTH 7 0
BBX 6 9 1 0
BITMAP
C0
C0
C0
F8
CC
CC
CC
CC
CC
ENDCHAR

STARTCHAR i
ENCODING 105
SWIDTH 240 0
DWIDTH 3 0
BBX 2 9 0 0
BITMAP
C0
C0
00
C0
C0
C0
C0
C0
C0
ENDCHAR

STARTCHAR j
ENCODING 106
SWIDTH 260 0
DWIDTH 3 0
BBX 2 11 0 -2
BITMAP
C0
C0
00
C0
C0
C0
C0
C0
C0
C0
80
ENDCHAR

STARTCHAR k
ENCODING 107
SWIDTH 580 0
DWIDTH 7 0
BBX 6 9 1 0
BITMAP
C0
C0
C0
CC
D8
F0
F0
D8
CC
ENDCHAR

STARTCHAR l
ENCODING 108
SWIDTH 240 0
DWIDTH 3 0
BBX 2 9 0 0
BITMAP
C0
C0
C0
C0
C0
C0
C0
C0
C0
ENDCHAR

STARTCHAR m
ENCODING 109
SWIDTH 940 0
DWIDTH 11 0
BBX 10 6 1 0
BITMAP
FB80
CCC0
CCC0
CCC0
CCC0
CCC0
ENDCHAR

STARTCHAR n
ENCODING 110
SWIDTH 600 0
DWIDTH 7 0
BBX 6 6 1 0
BITMAP
F8
CC
CC
CC
CC
CC
ENDCHAR

STARTCHAR o
ENCODING 111
SWIDTH 640 0
DWIDTH 8 0
BBX 7 6 0 0
BITMAP
38
6C
C6
C6
6C
38
ENDCHAR

STARTCHAR p
ENCODING 112
SWIDTH 660 0
DWIDTH 8 0
BBX 7 8 1 -2
BITMAP
FC
C6
C6
C6
C6
FC
C0
C0
ENDCHAR

STARTCHAR q
ENCODING 113
SWIDTH 660 0
DWIDTH 8 0
BBX 7 8 0 -2
BITMAP
7E
C6
C6
C6
C6
7E
06
06
ENDCHAR

STARTCHAR r
ENCODING 114
SWIDTH 320 0
DWIDTH 4 0
BBX 4 6 0 0
BITMAP
F0
C0
C0
C0
C0
C0
ENDCHAR

STARTCHAR s
ENCODING 115
SWIDTH 440 0
DWIDTH 5 0
BBX 5 6 0 0
BITMAP
78
C0
F0
78
18
F0
ENDCHAR

STARTCHAR t
ENCODING 116
SWIDTH 300 0
DWIDTH 4 0
BBX 4 9 0 0
BITMAP
60
60
60
F0
60
60
60
60
60
ENDCHAR

STARTCHAR u
ENCODING 117
SWIDTH 600 0
DWIDTH 7 0
BBX 6 6 1 0
BITMAP
CC
CC
CC
CC
CC
7C
ENDCHAR

STARTCHAR v
ENCODING 118
SWIDTH 560 0
DWIDTH 7 0
BBX 7 6 0 0
BITMAP
CE
EC
6C
78
38
30
ENDCHAR

STARTCHAR w
ENCODING 119
SWIDTH 800 0
DWIDTH 10 0
BBX 10 6 0 0
BITMAP
CDC0
DD80
7F80
7700
7700
3600
ENDCHAR

STARTCHAR x
ENCODING 120
SWIDTH 560 0
DWIDTH 7 0
BBX 7 6 0 0
BITMAP
EE
6C
38
38
6C
EE
ENDCHAR

STARTCHAR y
ENCODING 121
SWIDTH 580 0
DWIDTH 7 0
BBX 7 8 0 -2
BITMAP
CE
CC
6C
68
38
30
30
60
ENDCHAR

STARTCHAR z
ENCODING 122
SWIDTH 460 0
DWIDTH 6 0
BBX 5 6 0 0
BITMAP
F8
18
30
60
C0
F8
ENDCHAR

STARTCHAR braceleft
ENCODING 123
SWIDTH 340 0
DWIDTH 4 0
BBX 3 11 1 -2
BITMAP
60
60
60
60
60
C0
60
60
60
60
60
ENDCHAR

STARTCHAR bar
ENCODING 124
SWIDTH 600 0
DWIDTH 7 0
BBX 2 9 3 0
BITMAP
C0
C0
C0
C0
C0
C0
C0
C0
C0
ENDCHAR

STARTCHAR braceright
ENCODING 125
SWIDTH 340 0
DWIDTH 4 0
BBX 3 11 1 -2
BITMAP
C0
C0
C0
C0
C0
60
C0
C0
C0
C0
C0
ENDCHAR

STARTCHAR asciitilde
ENCODING 126
SWIDTH 600 0
DWIDTH 7 0
BBX 6 2 1 2
BITMAP
64
98
ENDCHAR

STARTCHAR exclamdown
ENCODING 161
SWIDTH 280 0
DWIDTH 3 0
BBX 2 8 1 -2
BITMAP
C0
00
C0
C0
C0
C0
C0
C0
ENDCHAR

STARTCHAR cent
ENCODING 162
SWIDTH 560 0
DWIDTH 7 0
BBX 6 9 0 0
BITMAP
30
30
78
CC
C0
C0
7C
38
30
ENDCHAR

STARTCHAR sterling
ENCODING 163
SWIDTH 560 0
DWIDTH 7 0
BBX 7 9 0 0
BITMAP
78
CC
C0
60
F8
20
36
66
FC
ENDCHAR

STARTCHAR currency
ENCODING 164
SWIDTH 560 0
DWIDTH 7 0
BBX 7 5 0 2
BITMAP
FE
C6
C6
C6
FE
ENDCHAR

STARTCHAR yen
ENCODING 165
SWIDTH 560 0
DWIDTH 7 0
BBX 8 9 0 0
BITMAP
C3
66
66
3C
7E
18
7E
18
18
ENDCHAR

STARTCHAR brokenbar
ENCODING 166
SWIDTH 600 0
DWIDTH 7 0
BBX 2 9 3 0
BITMAP
C0
C0
C0
00
00
C0
C0
C0
C0
ENDCHAR

STARTCHAR section
ENCODING 167
SWIDTH 560 0
DWIDTH 7 0
BBX 6 11 0 -2
BITMAP
38
6C
60
78
7C
CC
EC
78
1C
CC
78
ENDCHAR

STARTCHAR dieresis
ENCODING 168
SWIDTH 500 0
DWIDTH 6 0
BBX 4 1 1 8
BITMAP
90
ENDCHAR

STARTCHAR copyright
ENCODING 169
SWIDTH 740 0
DWIDTH 9 0
BBX 9 9 0 0
BITMAP
3E00
6300
DD80
B280
A080
B280
DD80
6300
3E00
ENDCHAR

STARTCHAR ordfeminine
ENCODING 170
SWIDTH 360 0
DWIDTH 4 0
BBX 4 6 0 3
BITMAP
70
90
90
70
00
F0
ENDCHAR

STARTCHAR guillemotleft
ENCODING 171
SWIDTH 460 0
DWIDTH 6 0
BBX 5 4 0 1
BITMAP
48
D8
D8
48
ENDCHAR

STARTCHAR logicalnot
ENCODING 172
SWIDTH 600 0
DWIDTH 7 0
BBX 6 3 1 2
BITMAP
FC
04
04
ENDCHAR

STARTCHAR hyphen
ENCODING 173
SWIDTH 420 0
DWIDTH 5 0
BBX 3 1 1 3
BITMAP
E0
ENDCHAR

STARTCHAR registered
ENCODING 174
SWIDTH 740 0
DWIDTH 9 0
BBX 9 9 0 0
BITMAP
3E00
6300
DD80
BE80
B680
BC80
F780
6300
3E00
ENDCHAR

STARTCHAR macron
ENCODING 175
SWIDTH 420 0
DWIDTH 5 0
BBX 3 1 1 8
BITMAP
E0
ENDCHAR

STARTCHAR degree
ENCODING 176
SWIDTH 400 0
DWIDTH 7 0
BBX 4 4 1 5
BITMAP
60
90
90
60
ENDCHAR

STARTCHAR plusminus
ENCODING 177
SWIDTH 600 0
DWIDTH 7 0
BBX 5 7 1 0
BITMAP
20
20
F8
20
20
00
F8
ENDCHAR

STARTCHAR twosuperior
ENCODING 178
SWIDTH 336 0
DWIDTH 4 0
BBX 3 5 -2 4
BITMAP
E0
20
60
C0
E0
ENDCHAR

STARTCHAR threesuperior
ENCODING 179
SWIDTH 336 0
DWIDTH 4 0
BBX 4 5 -1 4
BITMAP
70
10
30
90
70
ENDCHAR

STARTCHAR acute
ENCODING 180
SWIDTH 420 0
DWIDTH 5 0
BBX 3 3 1 7
BITMAP
60
E0
C0
ENDCHAR

STARTCHAR mu
ENCODING 181
SWIDTH 576 0
DWIDTH 7 0
BBX 6 8 1 -2
BITMAP
CC
CC
CC
CC
CC
FC
C0
C0
ENDCHAR

STARTCHAR paragraph
ENCODING 182
SWIDTH 600 0
DWIDTH 7 0
BBX 7 11 0 -2
BITMAP
7E
F6
F6
F6
76
36
36
36
36
36
36
ENDCHAR

STARTCHAR periodcentered
ENCODING 183
SWIDTH 280 0
DWIDTH 4 0
BBX 1 1 2 3
BITMAP
80
ENDCHAR

STARTCHAR cedilla
ENCODING 184
SWIDTH 340 0
DWIDTH 4 0
BBX 3 3 1 -3
BITMAP
40
E0
E0
ENDCHAR

STARTCHAR onesuperior
ENCODING 185
SWIDTH 336 0
DWIDTH 4 0
BBX 2 5 -2 4
BITMAP
C0
40
40
40
40
ENDCHAR

STARTCHAR ordmasculine
ENCODING 186
SWIDTH 360 0
DWIDTH 4 0
BBX 4 6 0 3
BITMAP
60
90
90
60
00
F0
ENDCHAR

STARTCHAR guillemotright
ENCODING 187
SWIDTH 460 0
DWIDTH 6 0
BBX 5 4 0 1
BITMAP
90
D8
D8
90
ENDCHAR

STARTCHAR onequarter
ENCODING 188
SWIDTH 840 0
DWIDTH 10 0
BBX 9 9 3 0
BITMAP
C600
4400
4C00
4800
4900
1B00
1500
3780
2100
ENDCHAR

STARTCHAR onehalf
ENCODING 189
SWIDTH 840 0
DWIDTH 10 0
BBX 9 9 3 0
BITMAP
C600
4600
4C00
4C00
4B80
1880
1180
3300
3380
ENDCHAR

STARTCHAR threequarters
ENCODING 190
SWIDTH 840 0
DWIDTH 10 0
BBX 10 9 4 0
BITMAP
7300
1200
3600
9400
6480
0D80
0A80
1BC0
1080
ENDCHAR

STARTCHAR questiondown
ENCODING 191
SWIDTH 560 0
DWIDTH 7 0
BBX 6 8 1 -2
BITMAP
30
00
30
70
E0
C0
CC
78
ENDCHAR

STARTCHAR Agrave
ENCODING 192
SWIDTH 740 0
DWIDTH 9 0
BBX 9 13 0 0
BITMAP
1800
1C00
0C00
0000
1800
1C00
1C00
3600
3600
7600
7F00
E300
C180
ENDCHAR

STARTCHAR Aacute
ENCODING 193
SWIDTH 740 0
DWIDTH 9 0
BBX 9 13 0 0
BITMAP
0C00
1C00
1800
0000
1800
1C00
1C00
3600
3600
7600
7F00
E300
C180
ENDCHAR

STARTCHAR Acircumflex
ENCODING 194
SWIDTH 740 0
DWIDTH 9 0
BBX 9 12 0 0
BITMAP
1C00
3600
0000
1800
1C00
1C00
3600
3600
7600
7F00
E300
C180
ENDCHAR

STARTCHAR Atilde
ENCODING 195
SWIDTH 740 0
DWIDTH 9 0
BBX 9 11 0 0
BITMAP
3C00
0000
1800
1C00
1C00
3600
3600
7600
7F00
E300
C180
ENDCHAR

STARTCHAR Adieresis
ENCODING 196
SWIDTH 740 0
DWIDTH 9 0
BBX 9 11 0 0
BITMAP
2400
0000
1800
1C00
1C00
3600
3600
7600
7F00
E300
C180
ENDCHAR

STARTCHAR Aring
ENCODING 197
SWIDTH 740 0
DWIDTH 9 0
BBX 9 12 0 0
BITMAP
1800
1800
0000
1800
1C00
1C00
3600
3600
7600
7F00
E300
C180
ENDCHAR

STARTCHAR AE
ENCODING 198
SWIDTH 900 0
DWIDTH 11 0
BBX 10 9 0 0
BITMAP
07C0
0700
0F00
0F00
1BC0
3F00
3300
6300
E3C0
ENDCHAR

STARTCHAR Ccedilla
ENCODING 199
SWIDTH 780 0
DWIDTH 9 0
BBX 9 12 0 -3
BITMAP
1E00
7F80
E180
C000
C000
C000
6180
7F80
1E00
0800
0400
1C00
ENDCHAR

STARTCHAR Egrave
ENCODING 200
SWIDTH 520 0
DWIDTH 6 0
BBX 5 13 1 0
BITMAP
60
70
30
00
F8
C0
C0
C0
F8
C0
C0
C0
F8
ENDCHAR

STARTCHAR Eacute
ENCODING 201
SWIDTH 520 0
DWIDTH 6 0
BBX 5 13 1 0
BITMAP
30
70
60
00
F8
C0
C0
C0
F8
C0
C0
C0
F8
ENDCHAR

STARTCHAR Ecircumflex
ENCODING 202
SWIDTH 520 0
DWIDTH 6 0
BBX 5 12 1 0
BITMAP
70
D8
00
F8
C0
C0
C0
F8
C0
C0
C0
F8
ENDCHAR

STARTCHAR Edieresis
ENCODING 203
SWIDTH 520 0
DWIDTH 6 0
BBX 5 11 1 0
BITMAP
90
00
F8
C0
C0
C0
F8
C0
C0
C0
F8
ENDCHAR

STARTCHAR Igrave
ENCODING 204
SWIDTH 280 0
DWIDTH 3 0
BBX 3 13 1 0
BITMAP
C0
E0
60
00
C0
C0
C0
C0
C0
C0
C0
C0
C0
ENDCHAR

STARTCHAR Iacute
ENCODING 205
SWIDTH 280 0
DWIDTH 3 0
BBX 3 13 1 0
BITMAP
60
E0
C0
00
C0
C0
C0
C0
C0
C0
C0
C0
C0
ENDCHAR

STARTCHAR Icircumflex
ENCODING 206
SWIDTH 280 0
DWIDTH 3 0
BBX 5 12 2 0
BITMAP
70
D8
00
60
60
60
60
60
60
60
60
60
ENDCHAR

STARTCHAR Idieresis
ENCODING 207
SWIDTH 280 0
DWIDTH 3 0
BBX 4 11 2 0
BITMAP
90
00
60
60
60
60
60
60
60
60
60
ENDCHAR

STARTCHAR Eth
ENCODING 208
SWIDTH 742 0
DWIDTH 8 0
BBX 8 9 0 0
BITMAP
7C
66
63
63
FB
63
63
66
7C
ENDCHAR

STARTCHAR Ntilde
ENCODING 209
SWIDTH 740 0
DWIDTH 9 0
BBX 8 11 0 0
BITMAP
3C
00
E3
E3
F3
FB
DB
DF
CF
C7
C7
ENDCHAR

STARTCHAR Ograve
ENCODING 210
SWIDTH 840 0
DWIDTH 10 0
BBX 8 13 0 0
BITMAP
18
1C
0C
00
3C
7E
E7
C3
C3
C3
E7
7E
3C
ENDCHAR

STARTCHAR Oacute
ENCODING 211
SWIDTH 840 0
DWIDTH 10 0
BBX 8 13 0 0
BITMAP
0C
1C
18
00
3C
7E
E7
C3
C3
C3
E7
7E
3C
ENDCHAR

STARTCHAR Ocircumflex
ENCODING 212
SWIDTH 840 0
DWIDTH 10 0
BBX 8 12 0 0
BITMAP
1C
36
00
3C
7E
E7
C3
C3
C3
E7
7E
3C
ENDCHAR

STARTCHAR Otilde
ENCODING 213
SWIDTH 840 0
DWIDTH 10 0
BBX 8 11 0 0
BITMAP
3C
00
3C
7E
E7
C3
C3
C3
E7
7E
3C
ENDCHAR

STARTCHAR Odieresis
ENCODING 214
SWIDTH 840 0
DWIDTH 10 0
BBX 8 11 0 0
BITMAP
24
00
3C
7E
E7
C3
C3
C3
E7
7E
3C
ENDCHAR

STARTCHAR multiply
ENCODING 215
SWIDTH 600 0
DWIDTH 7 0
BBX 5 6 1 2
BITMAP
C8
58
70
70
D8
88
ENDCHAR

STARTCHAR Oslash
ENCODING 216
SWIDTH 840 0
DWIDTH 10 0
BBX 10 9 0 0
BITMAP
1F80
6380
6780
CEC0
CCC0
D8C0
7980
7180
7E00
ENDCHAR

STARTCHAR Ugrave
ENCODING 217
SWIDTH 640 0
DWIDTH 8 0
BBX 6 13 1 0
BITMAP
30
38
18
00
CC
CC
CC
CC
CC
CC
CC
CC
78
ENDCHAR

STARTCHAR Uacute
ENCODING 218
SWIDTH 640 0
DWIDTH 8 0
BBX 6 13 1 0
BITMAP
18
38
30
00
CC
CC
CC
CC
CC
CC
CC
CC
78
ENDCHAR

STARTCHAR Ucircumflex
ENCODING 219
SWIDTH 640 0
DWIDTH 8 0
BBX 6 12 1 0
BITMAP
38
6C
00
CC
CC
CC
CC
CC
CC
CC
CC
78
ENDCHAR

STARTCHAR Udieresis
ENCODING 220
SWIDTH 640 0
DWIDTH 8 0
BBX 6 11 1 0
BITMAP
48
00
CC
CC
CC
CC
CC
CC
CC
CC
78
ENDCHAR

STARTCHAR Yacute
ENCODING 221
SWIDTH 620 0
DWIDTH 7 0
BBX 8 13 0 0
BITMAP
18
38
30
00
C3
66
66
3C
3C
18
18
18
18
ENDCHAR

STARTCHAR Thorn
ENCODING 222
SWIDTH 560 0
DWIDTH 7 0
BBX 6 9 1 0
BITMAP
C0
C0
F8
CC
CC
CC
F8
C0
C0
ENDCHAR

STARTCHAR germandbls
ENCODING 223
SWIDTH 600 0
DWIDTH 7 0
BBX 7 9 0 0
BITMAP
78
CC
CC
CC
DC
C6
C6
E6
FC
ENDCHAR

STARTCHAR agrave
ENCODING 224
SWIDTH 660 0
DWIDTH 8 0
BBX 7 10 0 0
BITMAP
30
38
18
00
7A
C6
C6
C6
C6
7A
ENDCHAR

STARTCHAR aacute
ENCODING 225
SWIDTH 660 0
DWIDTH 8 0
BBX 7 10 0 0
BITMAP
18
38
30
00
7A
C6
C6
C6
C6
7A
ENDCHAR

STARTCHAR acircumflex
ENCODING 226
SWIDTH 660 0
DWIDTH 8 0
BBX 7 9 0 0
BITMAP
38
6C
00
7A
C6
C6
C6
C6
7A
ENDCHAR

STARTCHAR atilde
ENCODING 227
SWIDTH 660 0
DWIDTH 8 0
BBX 7 8 0 0
BITMAP
3C
00
7A
C6
C6
C6
C6
7A
ENDCHAR

STARTCHAR adieresis
ENCODING 228
SWIDTH 660 0
DWIDTH 8 0
BBX 7 8 0 0
BITMAP
24
00
7A
C6
C6
C6
C6
7A
ENDCHAR

STARTCHAR aring
ENCODING 229
SWIDTH 660 0
DWIDTH 8 0
BBX 7 9 0 0
BITMAP
18
18
00
7A
C6
C6
C6
C6
7A
ENDCHAR

STARTCHAR ae
ENCODING 230
SWIDTH 1080 0
DWIDTH 13 0
BBX 13 6 0 0
BITMAP
7BF0
CE18
C7F8
C600
CF18
7AF0
ENDCHAR

STARTCHAR ccedilla
ENCODING 231
SWIDTH 640 0
DWIDTH 8 0
BBX 7 9 0 -3
BITMAP
3C
E6
C0
C0
E6
3C
10
08
38
ENDCHAR

STARTCHAR egrave
ENCODING 232
SWIDTH 640 0
DWIDTH 8 0
BBX 8 10 0 0
BITMAP
18
1C
0C
00
3C
43
FF
C0
63
3C
ENDCHAR

STARTCHAR eacute
ENCODING 233
SWIDTH 640 0
DWIDTH 8 0
BBX 8 10 0 0
BITMAP
0C
1C
18
00
3C
43
FF
C0
63
3C
ENDCHAR

STARTCHAR ecircumflex
ENCODING 234
SWIDTH 640 0
DWIDTH 8 0
BBX 8 9 0 0
BITMAP
1C
36
00
3C
43
FF
C0
63
3C
ENDCHAR

STARTCHAR edieresis
ENCODING 235
SWIDTH 640 0
DWIDTH 8 0
BBX 8 8 0 0
BITMAP
24
00
3C
43
FF
C0
63
3C
ENDCHAR

STARTCHAR igrave
ENCODING 236
SWIDTH 240 0
DWIDTH 3 0
BBX 3 10 0 0
BITMAP
C0
E0
60
00
C0
C0
C0
C0
C0
C0
ENDCHAR

STARTCHAR iacute
ENCODING 237
SWIDTH 240 0
DWIDTH 3 0
BBX 3 10 0 0
BITMAP
60
E0
C0
00
C0
C0
C0
C0
C0
C0
ENDCHAR

STARTCHAR icircumflex
ENCODING 238
SWIDTH 240 0
DWIDTH 3 0
BBX 5 9 1 0
BITMAP
70
D8
00
60
60
60
60
60
60
ENDCHAR

STARTCHAR idieresis
ENCODING 239
SWIDTH 240 0
DWIDTH 3 0
BBX 4 8 1 0
BITMAP
90
00
60
60
60
60
60
60
ENDCHAR

STARTCHAR eth
ENCODING 240
SWIDTH 640 0
DWIDTH 8 0
BBX 7 9 0 0
BITMAP
38
30
08
3C
6E
C6
C6
6C
38
ENDCHAR

STARTCHAR ntilde
ENCODING 241
SWIDTH 600 0
DWIDTH 7 0
BBX 6 8 1 0
BITMAP
78
00
F8
CC
CC
CC
CC
CC
ENDCHAR

STARTCHAR ograve
ENCODING 242
SWIDTH 640 0
DWIDTH 8 0
BBX 7 10 0 0
BITMAP
30
38
18
00
38
6C
C6
C6
6C
38
ENDCHAR

STARTCHAR oacute
ENCODING 243
SWIDTH 640 0
DWIDTH 8 0
BBX 7 10 0 0
BITMAP
18
38
30
00
38
6C
C6
C6
6C
38
ENDCHAR

STARTCHAR ocircumflex
ENCODING 244
SWIDTH 640 0
DWIDTH 8 0
BBX 7 9 0 0
BITMAP
38
6C
00
38
6C
C6
C6
6C
38
ENDCHAR

STARTCHAR otilde
ENCODING 245
SWIDTH 640 0
DWIDTH 8 0
BBX 7 8 0 0
BITMAP
78
00
38
6C
C6
C6
6C
38
ENDCHAR

STARTCHAR odieresis
ENCODING 246
SWIDTH 640 0
DWIDTH 8 0
BBX 7 8 0 0
BITMAP
48
00
38
6C
C6
C6
6C
38
ENDCHAR

STARTCHAR divide
ENCODING 247
SWIDTH 600 0
DWIDTH 7 0
BBX 5 5 1 1
BITMAP
20
00
F8
00
20
ENDCHAR

STARTCHAR oslash
ENCODING 248
SWIDTH 660 0
DWIDTH 8 0
BBX 7 8 0 -1
BITMAP
06
3E
EE
D6
D6
FC
78
60
ENDCHAR

STARTCHAR ugrave
ENCODING 249
SWIDTH 600 0
DWIDTH 7 0
BBX 6 10 1 0
BITMAP
30
38
18
00
CC
CC
CC
CC
CC
7C
ENDCHAR

STARTCHAR uacute
ENCODING 250
SWIDTH 600 0
DWIDTH 7 0
BBX 6 10 1 0
BITMAP
18
38
30
00
CC
CC
CC
CC
CC
7C
ENDCHAR

STARTCHAR ucircumflex
ENCODING 251
SWIDTH 600 0
DWIDTH 7 0
BBX 6 9 1 0
BITMAP
38
6C
00
CC
CC
CC
CC
CC
7C
ENDCHAR

STARTCHAR udieresis
ENCODING 252
SWIDTH 600 0
DWIDTH 7 0
BBX 6 8 1 0
BITMAP
48
00
CC
CC
CC
CC
CC
7C
ENDCHAR

STARTCHAR yacute
ENCODING 253
SWIDTH 580 0
DWIDTH 7 0
BBX 7 12 0 -2
BITMAP
18
38
30
00
CE
CC
6C
68
38
30
30
60
ENDCHAR

STARTCHAR thorn
ENCODING 254
SWIDTH 660 0
DWIDTH 8 0
BBX 7 11 1 -2
BITMAP
C0
C0
C0
FC
C6
C6
C6
C6
FC
C0
C0
ENDCHAR

STARTCHAR ydieresis
ENCODING 255
SWIDTH 580 0
DWIDTH 7 0
BBX 7 10 0 -2
BITMAP
48
00
CE
CC
6C
68
38
30
30
60
ENDCHAR
ENDFONT
